<svg xmlns="http://www.w3.org/2000/svg" width="200" height="135.951" viewBox="0 0 200 135.951">
  <g id="_90days" data-name="90days" transform="translate(-114.077 -937.752)">
    <g id="warranty" transform="translate(146.126 937.752)">
      <path id="Path_179" data-name="Path 179" d="M66.95,16.332A50.618,50.618,0,1,0,117.568,66.95,50.618,50.618,0,0,0,66.95,16.332Zm0,97.52a46.9,46.9,0,1,1,46.9-46.9A46.9,46.9,0,0,1,66.95,113.852Z" transform="translate(1.025 1.026)" fill="#3a61a0"/>
      <path id="Path_180" data-name="Path 180" d="M133.83,73.922a9.477,9.477,0,0,0,0-11.921l-3.046-3.8a5.822,5.822,0,0,1-1.044-5.266l1.359-4.663a9.594,9.594,0,0,0-4.572-11.032L122.272,34.9a5.821,5.821,0,0,1-2.989-4.46l-.531-4.837a9.476,9.476,0,0,0-8.432-8.432l-4.837-.531a5.818,5.818,0,0,1-4.46-2.988L98.686,9.4A9.476,9.476,0,0,0,87.653,4.826L82.992,6.184a5.831,5.831,0,0,1-5.268-1.045l-3.8-3.046A9.481,9.481,0,0,0,62,2.094L58.2,5.139a5.84,5.84,0,0,1-5.266,1.044L48.271,4.824A9.592,9.592,0,0,0,37.239,9.4L34.9,13.651a5.821,5.821,0,0,1-4.46,2.989l-4.837.531A9.476,9.476,0,0,0,17.174,25.6l-.531,4.837a5.818,5.818,0,0,1-2.988,4.46L9.4,37.237A9.479,9.479,0,0,0,4.826,48.27l1.36,4.661A5.831,5.831,0,0,1,5.141,58.2L2.1,62a9.477,9.477,0,0,0,0,11.921l3.045,3.8a5.822,5.822,0,0,1,1.044,5.266L4.826,87.651A9.594,9.594,0,0,0,9.4,98.684l4.255,2.336a5.821,5.821,0,0,1,2.989,4.46l.531,4.837A9.476,9.476,0,0,0,25.6,118.75l4.837.531a5.818,5.818,0,0,1,4.46,2.988l2.336,4.256A9.476,9.476,0,0,0,48.27,131.1l4.661-1.36a5.84,5.84,0,0,1,5.268,1.045l3.8,3.045a9.477,9.477,0,0,0,11.921,0l3.8-3.045a5.825,5.825,0,0,1,5.266-1.044l4.663,1.359a9.478,9.478,0,0,0,11.032-4.573l2.336-4.255a5.821,5.821,0,0,1,4.46-2.989l4.837-.531a9.476,9.476,0,0,0,8.432-8.432l.531-4.837a5.818,5.818,0,0,1,2.988-4.46l4.256-2.336A9.479,9.479,0,0,0,131.1,87.651l-1.36-4.661a5.831,5.831,0,0,1,1.045-5.268ZM127.883,75.4a9.55,9.55,0,0,0-1.712,8.631l1.361,4.661a5.784,5.784,0,0,1-2.791,6.731l-4.257,2.336a9.536,9.536,0,0,0-4.9,7.317l-.531,4.837a5.787,5.787,0,0,1-5.146,5.146l-4.838.531a9.54,9.54,0,0,0-7.316,4.9l-2.336,4.256a5.787,5.787,0,0,1-6.73,2.791l-4.662-1.36a9.54,9.54,0,0,0-8.63,1.711l-3.8,3.046a5.783,5.783,0,0,1-7.276,0l-3.8-3.046a9.547,9.547,0,0,0-8.631-1.712l-4.66,1.36a5.79,5.79,0,0,1-6.731-2.791l-2.336-4.257a9.536,9.536,0,0,0-7.317-4.9l-4.837-.531a5.787,5.787,0,0,1-5.146-5.146l-.531-4.838a9.54,9.54,0,0,0-4.9-7.316l-4.256-2.336a5.853,5.853,0,0,1-2.79-6.73l1.36-4.662A9.544,9.544,0,0,0,8.039,75.4L4.992,71.6a5.785,5.785,0,0,1,0-7.276l3.045-3.8a9.55,9.55,0,0,0,1.712-8.631L8.39,47.231A5.784,5.784,0,0,1,11.18,40.5l4.257-2.336a9.536,9.536,0,0,0,4.9-7.317l.531-4.837a5.787,5.787,0,0,1,5.153-5.143l4.838-.531a9.54,9.54,0,0,0,7.316-4.9l2.336-4.256A5.857,5.857,0,0,1,47.23,8.39l4.662,1.36a9.542,9.542,0,0,0,8.63-1.711l3.8-3.048a5.784,5.784,0,0,1,7.276,0l3.8,3.046a9.557,9.557,0,0,0,8.631,1.712L88.693,8.39a5.792,5.792,0,0,1,6.731,2.791l2.336,4.257a9.536,9.536,0,0,0,7.317,4.9l4.837.531a5.787,5.787,0,0,1,5.146,5.146l.531,4.838a9.54,9.54,0,0,0,4.9,7.316l4.256,2.336a5.854,5.854,0,0,1,2.791,6.73l-1.36,4.662a9.544,9.544,0,0,0,1.711,8.63l3.045,3.8a5.785,5.785,0,0,1,0,7.276Z" transform="translate(0.013 0.014)" fill="#3a61a0"/>
    </g>
    <path id="Path_181" data-name="Path 181" d="M0,0,100,1.749,200,0l-6.593,37.979L200,72,100,69.97,0,72,5.673,38.177Z" transform="translate(114.077 969.704)" fill="#3a61a0"/>
    <text id="Money_back_guarantee" data-name="Money back guarantee" transform="translate(214.077 1027.703)" fill="#fff" font-size="16" font-family="Assistant-Regular, Assistant"><tspan x="-86" y="0">MONEY BACK GUARANTEE</tspan></text>
    <text id="_90_DAY" data-name="90 DAY" transform="translate(214.077 1004.703)" fill="#fff" font-size="32" font-family="Assistant-ExtraBold, Assistant" font-weight="800"><tspan x="-48" y="0">90 DAY</tspan></text>
  </g>
</svg>
