<svg xmlns="http://www.w3.org/2000/svg" width="55.999" height="30.314" viewBox="0 0 55.999 30.314">
  <g id="delivery-truck" transform="translate(0.091 -11.305)">
    <path id="Path_161" data-name="Path 161" d="M41.9,38.659a4.8,4.8,0,1,1,4.794-4.8,4.8,4.8,0,0,1-4.794,4.8Zm0-7.845a3.047,3.047,0,1,0,3.044,3.047A3.047,3.047,0,0,0,41.9,30.814Z" transform="translate(6.198 2.96)" fill="#3a61a0"/>
    <path id="Path_162" data-name="Path 162" d="M20.228,38.659a4.8,4.8,0,1,1,4.793-4.8,4.8,4.8,0,0,1-4.793,4.8Zm0-7.845a3.047,3.047,0,1,0,3.043,3.047,3.047,3.047,0,0,0-3.043-3.047Z" transform="translate(2.586 2.96)" fill="#3a61a0"/>
    <path id="Path_163" data-name="Path 163" d="M48.63,36.592H46.237a.875.875,0,0,1,0-1.75h2.146V30.2a3.687,3.687,0,0,0-.467-1.792l-4.737-8.492a.467.467,0,0,0-.407-.239H36.317V34.846H38.4a.875.875,0,0,1,0,1.75H35.442a.875.875,0,0,1-.875-.875V18.8a.875.875,0,0,1,.875-.875h7.33a2.217,2.217,0,0,1,1.937,1.136l4.735,8.493a5.439,5.439,0,0,1,.687,2.644v4.888A1.5,1.5,0,0,1,48.63,36.592Z" transform="translate(5.776 1.104)" fill="#3a61a0"/>
    <path id="Path_164" data-name="Path 164" d="M17.506,35.137H9.117a.875.875,0,0,1-.875-.875V27.533a.875.875,0,1,1,1.75,0v5.854h7.514a.875.875,0,1,1,0,1.75Z" transform="translate(1.389 2.559)" fill="#3a61a0"/>
    <path id="Path_165" data-name="Path 165" d="M9.117,25.836a.875.875,0,0,1-.875-.875V19.086a.875.875,0,0,1,1.75,0v5.879a.875.875,0,0,1-.875.872Z" transform="translate(1.389 1.151)" fill="#3a61a0"/>
    <path id="Path_166" data-name="Path 166" d="M39.829,37.7H25.343a.875.875,0,0,1,0-1.75H38.954V13.055H9.992v3.6a.875.875,0,0,1-1.75,0V12.894a1.591,1.591,0,0,1,1.59-1.589H39.115A1.591,1.591,0,0,1,40.7,12.894V36.821A.875.875,0,0,1,39.829,37.7Z" transform="translate(1.389)" fill="#3a61a0"/>
    <path id="Path_167" data-name="Path 167" d="M13.668,28.408H2.563a.875.875,0,0,1,0-1.75H13.668a.875.875,0,1,1,0,1.75Z" transform="translate(0.296 2.559)" fill="#3a61a0"/>
    <path id="Path_168" data-name="Path 168" d="M21.881,25H6.384a.875.875,0,1,1,0-1.75h15.5a.875.875,0,0,1,0,1.75Z" transform="translate(0.933 1.99)" fill="#3a61a0"/>
    <path id="Path_169" data-name="Path 169" d="M6.835,21.037H.784a.875.875,0,0,1,0-1.75H6.835a.875.875,0,0,1,0,1.75Z" transform="translate(0 1.33)" fill="#3a61a0"/>
    <path id="Path_170" data-name="Path 170" d="M15.814,16.894H5.132a.875.875,0,1,1,0-1.75H15.814a.875.875,0,1,1,0,1.75Z" transform="translate(0.725 0.64)" fill="#3a61a0"/>
  </g>
</svg>
