<svg xmlns="http://www.w3.org/2000/svg" width="44" height="26.627" viewBox="0 0 44 26.627">
  <g id="united-states-of-america" transform="translate(0 -89.029)">
    <g id="Group_51" data-name="Group 51" transform="translate(0 89.029)">
      <g id="Group_50" data-name="Group 50" transform="translate(0 0)">
        <path id="Path_171" data-name="Path 171" d="M34.38,123.756h-.4v-.406a.865.865,0,0,0-1.729,0v.405H31.84a.865.865,0,1,0,0,1.729h.405v.406a.865.865,0,0,0,1.729,0v-.406h.405a.865.865,0,1,0,0-1.729Z" transform="translate(-27.953 -119.222)" fill="#3a61a0"/>
        <path id="Path_172" data-name="Path 172" d="M34.38,184.517h-.4v-.406a.865.865,0,1,0-1.729,0v.406H31.84a.865.865,0,1,0,0,1.729h.405v.405a.865.865,0,0,0,1.729,0v-.405h.405a.865.865,0,0,0,0-1.729Z" transform="translate(-27.953 -174.053)" fill="#3a61a0"/>
        <path id="Path_173" data-name="Path 173" d="M150.486,123.756h-.406v-.406a.865.865,0,0,0-1.729,0v.405h-.405a.865.865,0,0,0,0,1.729h.405v.406a.865.865,0,0,0,1.729,0v-.406h.406a.865.865,0,0,0,0-1.729Z" transform="translate(-132.729 -119.222)" fill="#3a61a0"/>
        <path id="Path_174" data-name="Path 174" d="M150.486,184.517h-.406v-.406a.865.865,0,1,0-1.729,0v.406h-.405a.865.865,0,1,0,0,1.729h.405v.405a.865.865,0,0,0,1.729,0v-.405h.406a.865.865,0,1,0,0-1.729Z" transform="translate(-132.729 -174.053)" fill="#3a61a0"/>
        <path id="Path_175" data-name="Path 175" d="M92.434,123.756h-.405v-.406a.865.865,0,0,0-1.729,0v.405h-.406a.865.865,0,1,0,0,1.729H90.3v.406a.865.865,0,1,0,1.729,0v-.406h.405a.865.865,0,1,0,0-1.729Z" transform="translate(-80.341 -119.222)" fill="#3a61a0"/>
        <path id="Path_176" data-name="Path 176" d="M92.434,184.517h-.405v-.406a.865.865,0,1,0-1.729,0v.406h-.406a.865.865,0,1,0,0,1.729H90.3v.405a.865.865,0,0,0,1.729,0v-.405h.405a.865.865,0,1,0,0-1.729Z" transform="translate(-80.341 -174.053)" fill="#3a61a0"/>
        <path id="Path_177" data-name="Path 177" d="M43.135,89.029H.865A.865.865,0,0,0,0,89.894v24.9a.865.865,0,0,0,.865.865H43.135a.865.865,0,0,0,.865-.865v-24.9A.865.865,0,0,0,43.135,89.029ZM1.729,90.754H19.915v13.274H1.729Zm40.541,23.168H1.729v-3.266H42.271Zm0-5H1.729v-3.17H42.271Zm0-4.9H21.645v-3.266H42.271v3.266Zm0-5H21.645V95.763H42.271v3.266Zm0-5.008H21.645V90.754H42.271v3.266Z" transform="translate(0 -89.029)" fill="#3a61a0"/>
      </g>
    </g>
  </g>
</svg>
